<?xml version="1.0" encoding="utf-8"?>
<!-- Generator: Adobe Illustrator 24.2.0, SVG Export Plug-In . SVG Version: 6.00 Build 0)  -->
<svg version="1.1" id="Layer_1" xmlns="http://www.w3.org/2000/svg" xmlns:xlink="http://www.w3.org/1999/xlink" x="0px" y="0px"
	 viewBox="0 0 300 115" style="enable-background:new 0 0 300 115;" xml:space="preserve">
<style type="text/css">
	.st0{fill:#ED1E79;}
	.st1{fill:none;stroke:#ED1E79;stroke-width:3;stroke-miterlimit:10;}
</style>
<g>
	<g>
		<g>
			<path class="st0" d="M101.38,94.55l-0.13-0.1c-0.39-0.29-0.59-0.48-0.68-0.68L89.86,72.64H43.03L32.41,93.86
				c-0.19,0.29-0.36,0.46-0.55,0.55c-0.19,0.1-0.34,0.14-0.47,0.14c-0.83,0-1.32-0.47-1.32-1.25v-0.06l0.1-0.45l10.17-20.16h-6.27
				c-0.8,0-1.28-0.48-1.28-1.29c0-0.54,0.34-1.13,1.28-1.13h7.49l23.76-47.06c0.24-0.49,0.59-1.06,1.15-1.06
				c0.54,0,1.02,0.32,1.43,0.96l34.76,69.69l0.13,0.38v0.08c0,0.84-0.46,1.35-1.24,1.35H101.38z M88.66,70.23L66.58,25.79
				L44.25,70.23H88.66z"/>
			<path class="st0" d="M66.47,22.6c0.36,0,0.7,0.24,1.01,0.73l34.73,69.64l0.08,0.23c0,0.57-0.25,0.85-0.74,0.85
				c-0.3-0.22-0.47-0.38-0.52-0.48L90.17,72.14H42.72l-10.76,21.5c-0.11,0.16-0.22,0.28-0.33,0.33c-0.11,0.05-0.19,0.08-0.25,0.08
				c-0.55,0-0.82-0.25-0.82-0.75l0.08-0.33l10.5-20.83h-7.08c-0.52,0-0.78-0.26-0.78-0.79c0-0.42,0.26-0.63,0.78-0.63h7.8
				l23.9-47.34C66.03,22.87,66.26,22.6,66.47,22.6 M43.44,70.73h46.03L66.58,24.67L43.44,70.73 M66.47,21.6
				c-0.93,0-1.41,0.97-1.6,1.34L41.25,69.73h-7.18c-1.23,0-1.78,0.82-1.78,1.63c0,1.09,0.7,1.79,1.78,1.79h5.46l-9.77,19.38
				l-0.05,0.11l-0.03,0.12l-0.08,0.33l-0.03,0.11v0.11c0,1.06,0.71,1.75,1.82,1.75c0.28,0,0.51-0.1,0.69-0.18
				c0.28-0.14,0.51-0.36,0.72-0.68l0.03-0.05l0.03-0.05l10.48-20.94h46.21l10.58,20.88c0.11,0.25,0.35,0.49,0.82,0.84l0.26,0.19
				h0.33c1.06,0,1.74-0.73,1.74-1.85v-0.16l-0.05-0.15l-0.08-0.23l-0.02-0.07l-0.03-0.06L68.37,22.89l-0.02-0.05l-0.03-0.05
				C67.69,21.81,66.96,21.6,66.47,21.6L66.47,21.6z M45.06,69.73L66.57,26.9l21.28,42.82H45.06L45.06,69.73z"/>
		</g>
		<g>
			<path class="st0" d="M113.86,85.22c-0.26,0-1.12-0.09-1.12-1.28V68.2c0-1.63-0.16-2.78-0.49-3.41c-0.27-0.53-0.81-0.79-1.65-0.79
				c-0.65,0-1.34,0.17-2.04,0.49c-0.1,0.05-0.66,0.4-3.27,2.18l-0.72,0.32h-0.1c-0.29,0-0.54-0.1-0.74-0.3
				c-0.14-0.14-0.25-0.28-0.33-0.43l-0.09-0.18l0.05-0.19c0.13-0.47,0.28-0.73,0.48-0.88l0.12-0.12c2.54-2.21,4.85-3.31,6.88-3.31
				c1.96,0,4.31,0.95,4.31,5.48v1.01c2.28-2.16,4.03-3.66,5.2-4.45c1.94-1.35,3.78-2.03,5.49-2.03c1.73,0,3.16,0.55,4.24,1.64
				c1.08,1.09,1.62,2.56,1.62,4.36c0,3.03-1.38,5.19-4.1,6.43l-0.1,0.04h-0.91l-0.14-0.12c-0.47-0.39-0.65-0.64-0.65-0.93v-0.15
				l0.45-0.69l0.11-0.06c1.98-1.1,2.94-2.48,2.94-4.21c0-2.67-1.19-3.91-3.75-3.91c-2.05,0-5.55,2.43-10.4,7.23v12.71
				C115.14,84.74,114.66,85.22,113.86,85.22z"/>
			<path class="st0" d="M125.83,62.08c1.61,0,2.9,0.5,3.89,1.49c0.98,1,1.48,2.33,1.48,4.01c0,2.83-1.27,4.82-3.81,5.97h-0.23h-0.39
				c-0.31-0.26-0.47-0.44-0.47-0.54l0.3-0.46c2.13-1.19,3.19-2.74,3.19-4.64c0-2.94-1.42-4.41-4.25-4.41
				c-2.22,0-5.85,2.51-10.9,7.52v12.92c0,0.52-0.26,0.78-0.78,0.78c-0.42,0-0.62-0.26-0.62-0.78V68.19c0-1.72-0.18-2.94-0.54-3.64
				c-0.36-0.71-1.06-1.06-2.1-1.06c-0.73,0-1.48,0.18-2.25,0.54c-0.21,0.1-1.32,0.84-3.34,2.22l-0.54,0.23
				c-0.15,0-0.29-0.05-0.39-0.15c-0.1-0.1-0.18-0.21-0.23-0.31c0.1-0.36,0.21-0.57,0.31-0.62l0.16-0.16
				c2.43-2.11,4.61-3.17,6.53-3.17c2.54,0,3.81,1.66,3.81,4.97v2.18c2.69-2.59,4.69-4.33,5.98-5.21
				C122.49,62.73,124.22,62.08,125.83,62.08 M125.83,61.08c-1.81,0-3.75,0.71-5.78,2.12c-1.05,0.72-2.51,1.94-4.41,3.71
				c-0.06-5.07-3.03-5.83-4.81-5.83c-2.19,0-4.53,1.12-7.18,3.41l-0.03,0.02l-0.02,0.02l-0.09,0.09c-0.35,0.27-0.51,0.71-0.63,1.11
				l-0.11,0.38l0.18,0.35c0.1,0.2,0.24,0.39,0.42,0.56c0.29,0.29,0.68,0.44,1.09,0.44h0.2l0.19-0.08l0.54-0.23l0.09-0.04l0.08-0.06
				c2.61-1.78,3.13-2.1,3.23-2.15c0.61-0.28,1.23-0.43,1.8-0.43c0.94,0,1.13,0.36,1.21,0.51c0.16,0.31,0.43,1.15,0.43,3.18v15.74
				c0,1.23,0.81,1.78,1.62,1.78c1.06,0,1.78-0.72,1.78-1.78v-12.5c5.82-5.72,8.59-6.94,9.9-6.94c2.28,0,3.25,1.02,3.25,3.41
				c0,1.53-0.88,2.76-2.68,3.77l-0.22,0.12L125.76,72l-0.3,0.46l-0.16,0.25v0.3c0,0.58,0.43,0.98,0.83,1.31l0.28,0.23h0.36h0.39
				h0.23h0.22l0.2-0.09c2.87-1.3,4.39-3.69,4.39-6.88c0-1.94-0.59-3.52-1.76-4.71C129.25,61.68,127.7,61.08,125.83,61.08
				L125.83,61.08z"/>
		</g>
		<g>
			<path class="st0" d="M144.86,85.22c-0.26,0-1.12-0.09-1.12-1.28V68.2c0-1.63-0.16-2.78-0.49-3.41c-0.27-0.53-0.81-0.79-1.65-0.79
				c-0.65,0-1.34,0.17-2.04,0.49c-0.1,0.05-0.66,0.4-3.27,2.18l-0.72,0.32h-0.1c-0.29,0-0.54-0.1-0.74-0.3
				c-0.14-0.14-0.25-0.28-0.33-0.43l-0.09-0.18l0.05-0.19c0.13-0.47,0.28-0.73,0.48-0.88l0.12-0.12c2.54-2.21,4.85-3.31,6.88-3.31
				c1.96,0,4.31,0.95,4.31,5.48v1.01c2.28-2.16,4.03-3.66,5.2-4.45c1.94-1.35,3.78-2.03,5.49-2.03c1.73,0,3.16,0.55,4.24,1.64
				c1.08,1.09,1.62,2.56,1.62,4.36c0,3.03-1.38,5.19-4.1,6.43l-0.1,0.04h-0.91l-0.14-0.12c-0.47-0.39-0.65-0.64-0.65-0.93v-0.15
				l0.45-0.69l0.11-0.06c1.98-1.1,2.94-2.48,2.94-4.21c0-2.67-1.19-3.91-3.75-3.91c-2.05,0-5.54,2.43-10.4,7.23v12.71
				C146.14,84.74,145.66,85.22,144.86,85.22z"/>
			<path class="st0" d="M156.83,62.08c1.61,0,2.9,0.5,3.89,1.49c0.98,1,1.48,2.33,1.48,4.01c0,2.83-1.27,4.82-3.81,5.97h-0.23h-0.39
				c-0.31-0.26-0.47-0.44-0.47-0.54l0.3-0.46c2.13-1.19,3.19-2.74,3.19-4.64c0-2.94-1.42-4.41-4.25-4.41
				c-2.22,0-5.85,2.51-10.9,7.52v12.92c0,0.52-0.26,0.78-0.78,0.78c-0.42,0-0.62-0.26-0.62-0.78V68.19c0-1.72-0.18-2.94-0.54-3.64
				c-0.36-0.71-1.06-1.06-2.1-1.06c-0.73,0-1.48,0.18-2.25,0.54c-0.21,0.1-1.32,0.84-3.34,2.22l-0.54,0.23
				c-0.15,0-0.29-0.05-0.39-0.15c-0.1-0.1-0.18-0.21-0.23-0.31c0.1-0.36,0.21-0.57,0.31-0.62l0.16-0.16
				c2.43-2.11,4.61-3.17,6.53-3.17c2.54,0,3.81,1.66,3.81,4.97v2.18c2.69-2.59,4.69-4.33,5.98-5.21
				C153.49,62.73,155.22,62.08,156.83,62.08 M156.83,61.08c-1.81,0-3.75,0.71-5.78,2.12c-1.05,0.72-2.51,1.94-4.41,3.71
				c-0.06-5.07-3.03-5.83-4.81-5.83c-2.19,0-4.53,1.12-7.18,3.41l-0.03,0.02l-0.02,0.02l-0.09,0.09c-0.35,0.27-0.51,0.71-0.63,1.11
				l-0.11,0.38l0.18,0.35c0.1,0.2,0.24,0.39,0.42,0.56c0.29,0.29,0.68,0.44,1.09,0.44h0.2l0.19-0.08l0.54-0.23l0.09-0.04l0.08-0.06
				c2.61-1.78,3.13-2.1,3.23-2.15c0.61-0.28,1.23-0.43,1.8-0.43c0.94,0,1.13,0.36,1.21,0.51c0.16,0.31,0.43,1.15,0.43,3.18v15.74
				c0,1.23,0.81,1.78,1.62,1.78c1.06,0,1.78-0.72,1.78-1.78v-12.5c5.82-5.72,8.59-6.94,9.9-6.94c2.28,0,3.25,1.02,3.25,3.41
				c0,1.53-0.88,2.76-2.68,3.77l-0.22,0.12L156.76,72l-0.3,0.46l-0.16,0.25v0.3c0,0.58,0.43,0.98,0.83,1.31l0.28,0.23h0.36h0.39
				h0.23h0.22l0.2-0.09c2.87-1.3,4.39-3.69,4.39-6.88c0-1.94-0.59-3.52-1.76-4.71C160.25,61.68,158.7,61.08,156.83,61.08
				L156.83,61.08z"/>
		</g>
		<g>
			<path class="st0" d="M177.18,85.61c-3.23,0-6.06-1.2-8.4-3.56s-3.53-5.21-3.53-8.46c0-3.25,1.16-6.1,3.44-8.46
				c2.29-2.36,5.14-3.56,8.48-3.56c3.39,0,6.25,1.16,8.51,3.44c2.26,2.28,3.41,5.17,3.41,8.58c0,3.36-1.19,6.24-3.53,8.54
				C183.24,84.44,180.41,85.61,177.18,85.61z M177.22,64c-2.71,0-5,0.95-6.82,2.82c-1.82,1.88-2.75,4.16-2.75,6.78
				c0,2.57,0.96,4.83,2.86,6.73c1.9,1.9,4.15,2.87,6.71,2.87c2.56,0,4.8-0.93,6.67-2.75c1.87-1.82,2.81-4.13,2.81-6.84
				c0-2.72-0.92-5.02-2.74-6.85C182.15,64.92,179.88,64,177.22,64z"/>
			<path class="st0" d="M177.18,62.08c3.26,0,5.98,1.1,8.16,3.29c2.18,2.19,3.26,4.94,3.26,8.22c0,3.24-1.13,5.97-3.38,8.19
				c-2.25,2.22-4.93,3.33-8.04,3.33c-3.11,0-5.79-1.13-8.04-3.41c-2.25-2.27-3.38-4.97-3.38-8.11c0-3.13,1.1-5.83,3.3-8.11
				C171.27,63.22,173.97,62.08,177.18,62.08 M177.22,83.7c2.7,0,5.04-0.97,7.02-2.9c1.98-1.93,2.96-4.33,2.96-7.2
				c0-2.87-0.96-5.27-2.89-7.2c-1.92-1.93-4.29-2.9-7.1-2.9c-2.86,0-5.25,0.99-7.18,2.98c-1.92,1.98-2.89,4.36-2.89,7.12
				c0,2.71,1,5.08,3,7.09C172.17,82.69,174.52,83.7,177.22,83.7 M177.18,61.08c-3.48,0-6.45,1.25-8.84,3.71
				c-2.38,2.45-3.58,5.42-3.58,8.8c0,3.39,1.23,6.36,3.67,8.81c2.44,2.46,5.38,3.7,8.75,3.7c3.37,0,6.31-1.22,8.74-3.62
				c2.44-2.4,3.68-5.4,3.68-8.9c0-3.55-1.2-6.55-3.55-8.93C183.69,62.29,180.71,61.08,177.18,61.08L177.18,61.08z M177.22,82.7
				c-2.45,0-4.53-0.89-6.35-2.72c-1.82-1.83-2.71-3.92-2.71-6.38c0-2.52,0.85-4.62,2.6-6.43c1.74-1.8,3.86-2.67,6.46-2.67
				c2.55,0,4.64,0.85,6.39,2.6c1.75,1.75,2.59,3.88,2.59,6.5c0,2.62-0.87,4.74-2.66,6.49C181.75,81.84,179.68,82.7,177.22,82.7
				L177.22,82.7z"/>
		</g>
		<g>
			<path class="st0" d="M234.87,94.47c-0.67,0-1.19-0.38-1.48-1.08l-8.91-19.23l-9.32,19.26c-0.14,0.27-0.54,1.05-1.23,1.05
				c-0.36,0-1.02-0.14-1.4-1.08L179.19,23.6v-0.43c0-0.75,0.45-1.22,1.17-1.22h0.12l0.11,0.05c0.48,0.25,0.72,0.45,0.83,0.69
				l32.49,68.17l9.18-19.31l-22.89-47.9l-0.1-0.43v-0.06c0-0.75,0.46-1.22,1.2-1.22h0.11l0.1,0.04c0.5,0.23,0.76,0.42,0.87,0.64
				l21.97,46.15l22.42-46.14c0.11-0.23,0.3-0.54,0.64-0.63c0.16-0.04,0.3-0.06,0.44-0.06c0.74,0,1.2,0.47,1.2,1.22v0.06l-0.1,0.43
				L225.7,71.65l9.1,19.12l32.91-68.1c0.16-0.29,0.32-0.46,0.49-0.56c0.18-0.11,0.33-0.16,0.48-0.16c0.78,0,1.25,0.49,1.25,1.3v0.36
				L236.1,93.42C235.96,93.69,235.57,94.47,234.87,94.47z"/>
			<path class="st0" d="M268.68,22.45c0.5,0,0.75,0.27,0.75,0.8v0.24l-33.78,69.72c-0.26,0.51-0.52,0.77-0.78,0.77
				c-0.47,0-0.81-0.26-1.01-0.77l-9.36-20.21l-9.78,20.21c-0.26,0.51-0.52,0.77-0.78,0.77c-0.42,0-0.73-0.26-0.93-0.77l-33.31-69.72
				v-0.32c0-0.48,0.22-0.72,0.67-0.72c0.35,0.18,0.54,0.32,0.59,0.44l32.95,69.14l9.73-20.47l-22.97-48.06l-0.08-0.32
				c0-0.48,0.23-0.72,0.7-0.72c0.36,0.16,0.57,0.3,0.62,0.41l22.41,47.08l22.87-47.08c0.1-0.22,0.21-0.34,0.31-0.37
				c0.1-0.03,0.21-0.04,0.31-0.04c0.47,0,0.7,0.24,0.7,0.72l-0.08,0.32l-23.31,48.16l9.66,20.28l33.36-69.04
				c0.1-0.18,0.2-0.29,0.3-0.35C268.56,22.48,268.63,22.45,268.68,22.45 M268.68,21.45c-0.31,0-0.57,0.13-0.73,0.23
				c-0.25,0.15-0.47,0.38-0.66,0.72l-0.02,0.03l-0.01,0.03l-32.46,67.16l-8.55-17.96l23.1-47.73l0.05-0.1l0.03-0.1l0.08-0.32
				l0.03-0.12v-0.12c0-1.03-0.68-1.72-1.7-1.72c-0.18,0-0.37,0.02-0.56,0.07c-0.61,0.16-0.88,0.72-0.97,0.9l-21.96,45.2l-21.52-45.2
				c-0.2-0.41-0.59-0.65-1.12-0.89l-0.2-0.09h-0.22c-1.02,0-1.7,0.69-1.7,1.72v0.12l0.03,0.11l0.08,0.32l0.02,0.1l0.05,0.1
				l22.76,47.63L213.9,89.7l-32.04-67.24c-0.17-0.41-0.6-0.68-1.04-0.9l-0.21-0.11h-0.24c-1,0-1.67,0.69-1.67,1.72v0.32v0.23
				l0.1,0.2l33.3,69.69c0.51,1.23,1.46,1.36,1.85,1.36c0.66,0,1.22-0.44,1.67-1.31l8.87-18.33l8.48,18.3
				c0.34,0.84,1.05,1.35,1.92,1.35c0.67,0,1.23-0.44,1.67-1.31l33.79-69.74l0.1-0.21v-0.23v-0.24
				C270.43,22.17,269.73,21.45,268.68,21.45L268.68,21.45z"/>
		</g>
	</g>
	<g>
		<g>
			<polyline class="st1" points="244.46,0 0,0 0,115 300,115 300,45.71 			"/>
			<g>
				<g>
					<path class="st0" d="M278.02,10.32l-9.31-8.85h-26.02c3.39,2.54,6.46,5.54,9.24,8.85H278.02z"/>
				</g>
			</g>
			<g>
				<path class="st0" d="M300,51.09l-10.81,6.57l-0.24-0.37l7-17.63c1.35-6.14,2.7-12.28,4.05-18.42c1.35,6.14,2.7,12.28,4.05,18.42
					l7,17.63l-0.18,0.37L300,51.09z"/>
			</g>
		</g>
	</g>
</g>
</svg>
