<?xml version="1.0" encoding="utf-8"?>
<!-- Generator: Adobe Illustrator 24.2.0, SVG Export Plug-In . SVG Version: 6.00 Build 0)  -->
<svg version="1.1" id="Layer_1" xmlns="http://www.w3.org/2000/svg" xmlns:xlink="http://www.w3.org/1999/xlink" x="0px" y="0px"
	 viewBox="0 0 320 150" style="enable-background:new 0 0 320 150;" xml:space="preserve">
<style type="text/css">
	.st0{fill:#ED1E79;}
	.st1{fill:none;stroke:#ED1E79;stroke-width:3;stroke-miterlimit:10;}
</style>
<g>
	<g>
		<g>
			<path class="st0" d="M111.4,112.1l-0.1-0.1c-0.4-0.3-0.6-0.5-0.7-0.7L99.9,90.1H53l-10.6,21.2c-0.2,0.3-0.4,0.5-0.5,0.6
				c-0.2,0.1-0.3,0.1-0.5,0.1c-0.8,0-1.3-0.5-1.3-1.3v-0.1l0.1-0.4l10.2-20.2h-6.3c-0.8,0-1.3-0.5-1.3-1.3c0-0.5,0.3-1.1,1.3-1.1
				h7.5l23.8-47.1c0.2-0.5,0.6-1.1,1.2-1.1c0.5,0,1,0.3,1.4,1l34.8,69.7l0.1,0.4v0.1c0,0.8-0.5,1.3-1.2,1.3H111.4z M98.7,87.7
				L76.6,43.3L54.3,87.7H98.7z"/>
			<path class="st0" d="M76.5,40.1c0.4,0,0.7,0.2,1,0.7l34.7,69.6l0.1,0.2c0,0.6-0.3,0.8-0.7,0.8c-0.3-0.2-0.5-0.4-0.5-0.5
				l-10.9-21.4H52.7L42,111.1c-0.1,0.2-0.2,0.3-0.3,0.3s-0.2,0.1-0.3,0.1c-0.5,0-0.8-0.3-0.8-0.8l0.1-0.3l10.5-20.8h-7.1
				c-0.5,0-0.8-0.3-0.8-0.8c0-0.4,0.3-0.6,0.8-0.6h7.8l23.9-47.3C76,40.4,76.3,40.1,76.5,40.1 M53.4,88.2h46L76.6,42.2L53.4,88.2
				 M76.5,39.1c-0.9,0-1.4,1-1.6,1.3L51.3,87.2h-7.2c-1.2,0-1.8,0.8-1.8,1.6c0,1.1,0.7,1.8,1.8,1.8h5.5L39.8,110l0,0.1l0,0.1
				l-0.1,0.3l0,0.1v0.1c0,1.1,0.7,1.8,1.8,1.8c0.3,0,0.5-0.1,0.7-0.2c0.3-0.1,0.5-0.4,0.7-0.7l0-0.1l0-0.1l10.5-20.9h46.2l10.6,20.9
				c0.1,0.3,0.3,0.5,0.8,0.8l0.3,0.2h0.3c1.1,0,1.7-0.7,1.7-1.8v-0.2l-0.1-0.2l-0.1-0.2l0-0.1l0-0.1L78.4,40.4l0,0l0,0
				C77.7,39.3,77,39.1,76.5,39.1L76.5,39.1z M55.1,87.2l21.5-42.8l21.3,42.8L55.1,87.2L55.1,87.2z"/>
		</g>
		<g>
			<path class="st0" d="M123.9,102.7c-0.3,0-1.1-0.1-1.1-1.3V85.7c0-1.6-0.2-2.8-0.5-3.4c-0.3-0.5-0.8-0.8-1.7-0.8
				c-0.7,0-1.3,0.2-2,0.5c-0.1,0.1-0.7,0.4-3.3,2.2l-0.7,0.3h-0.1c-0.3,0-0.5-0.1-0.7-0.3c-0.1-0.1-0.3-0.3-0.3-0.4l-0.1-0.2
				l0.1-0.2c0.1-0.5,0.3-0.7,0.5-0.9l0.1-0.1c2.5-2.2,4.8-3.3,6.9-3.3c2,0,4.3,0.9,4.3,5.5v1c2.3-2.2,4-3.7,5.2-4.4
				c1.9-1.3,3.8-2,5.5-2c1.7,0,3.2,0.6,4.2,1.6s1.6,2.6,1.6,4.4c0,3-1.4,5.2-4.1,6.4l-0.1,0h-0.9l-0.1-0.1c-0.5-0.4-0.6-0.6-0.6-0.9
				v-0.2l0.4-0.7l0.1-0.1c2-1.1,2.9-2.5,2.9-4.2c0-2.7-1.2-3.9-3.8-3.9c-2.1,0-5.6,2.4-10.4,7.2v12.7
				C125.1,102.2,124.7,102.7,123.9,102.7z"/>
			<path class="st0" d="M135.8,79.6c1.6,0,2.9,0.5,3.9,1.5c1,1,1.5,2.3,1.5,4c0,2.8-1.3,4.8-3.8,6h-0.2h-0.4
				c-0.3-0.3-0.5-0.4-0.5-0.5l0.3-0.5c2.1-1.2,3.2-2.7,3.2-4.6c0-2.9-1.4-4.4-4.3-4.4c-2.2,0-5.9,2.5-10.9,7.5v12.9
				c0,0.5-0.3,0.8-0.8,0.8c-0.4,0-0.6-0.3-0.6-0.8V85.7c0-1.7-0.2-2.9-0.5-3.6c-0.4-0.7-1.1-1.1-2.1-1.1c-0.7,0-1.5,0.2-2.3,0.5
				c-0.2,0.1-1.3,0.8-3.3,2.2l-0.5,0.2c-0.2,0-0.3-0.1-0.4-0.2s-0.2-0.2-0.2-0.3c0.1-0.4,0.2-0.6,0.3-0.6l0.2-0.2
				c2.4-2.1,4.6-3.2,6.5-3.2c2.5,0,3.8,1.7,3.8,5v2.2c2.7-2.6,4.7-4.3,6-5.2C132.5,80.2,134.2,79.6,135.8,79.6 M135.8,78.6
				c-1.8,0-3.8,0.7-5.8,2.1c-1.1,0.7-2.5,1.9-4.4,3.7c-0.1-5.1-3-5.8-4.8-5.8c-2.2,0-4.5,1.1-7.2,3.4l0,0l0,0l-0.1,0.1
				c-0.3,0.3-0.5,0.7-0.6,1.1l-0.1,0.4L113,84c0.1,0.2,0.2,0.4,0.4,0.6c0.3,0.3,0.7,0.4,1.1,0.4h0.2l0.2-0.1l0.5-0.2l0.1,0l0.1-0.1
				c2.6-1.8,3.1-2.1,3.2-2.2c0.6-0.3,1.2-0.4,1.8-0.4c0.9,0,1.1,0.4,1.2,0.5c0.2,0.3,0.4,1.2,0.4,3.2v15.7c0,1.2,0.8,1.8,1.6,1.8
				c1.1,0,1.8-0.7,1.8-1.8V88.9c5.8-5.7,8.6-6.9,9.9-6.9c2.3,0,3.3,1,3.3,3.4c0,1.5-0.9,2.8-2.7,3.8l-0.2,0.1l-0.1,0.2l-0.3,0.5
				l-0.2,0.3v0.3c0,0.6,0.4,1,0.8,1.3l0.3,0.2h0.4h0.4h0.2h0.2l0.2-0.1c2.9-1.3,4.4-3.7,4.4-6.9c0-1.9-0.6-3.5-1.8-4.7
				C139.3,79.2,137.7,78.6,135.8,78.6L135.8,78.6z"/>
		</g>
		<g>
			<path class="st0" d="M154.9,102.7c-0.3,0-1.1-0.1-1.1-1.3V85.7c0-1.6-0.2-2.8-0.5-3.4c-0.3-0.5-0.8-0.8-1.6-0.8
				c-0.6,0-1.3,0.2-2,0.5c-0.1,0.1-0.7,0.4-3.3,2.2l-0.7,0.3h-0.1c-0.3,0-0.5-0.1-0.7-0.3c-0.1-0.1-0.3-0.3-0.3-0.4l-0.1-0.2
				l0.1-0.2c0.1-0.5,0.3-0.7,0.5-0.9l0.1-0.1c2.5-2.2,4.9-3.3,6.9-3.3c2,0,4.3,0.9,4.3,5.5v1c2.3-2.2,4-3.7,5.2-4.4
				c1.9-1.3,3.8-2,5.5-2c1.7,0,3.2,0.6,4.2,1.6s1.6,2.6,1.6,4.4c0,3-1.4,5.2-4.1,6.4l-0.1,0h-0.9l-0.1-0.1c-0.5-0.4-0.6-0.6-0.6-0.9
				v-0.2l0.4-0.7l0.1-0.1c2-1.1,2.9-2.5,2.9-4.2c0-2.7-1.2-3.9-3.8-3.9c-2.1,0-5.5,2.4-10.4,7.2v12.7
				C156.1,102.2,155.7,102.7,154.9,102.7z"/>
			<path class="st0" d="M166.8,79.6c1.6,0,2.9,0.5,3.9,1.5c1,1,1.5,2.3,1.5,4c0,2.8-1.3,4.8-3.8,6h-0.2h-0.4
				c-0.3-0.3-0.5-0.4-0.5-0.5l0.3-0.5c2.1-1.2,3.2-2.7,3.2-4.6c0-2.9-1.4-4.4-4.3-4.4c-2.2,0-5.9,2.5-10.9,7.5v12.9
				c0,0.5-0.3,0.8-0.8,0.8c-0.4,0-0.6-0.3-0.6-0.8V85.7c0-1.7-0.2-2.9-0.5-3.6c-0.4-0.7-1.1-1.1-2.1-1.1c-0.7,0-1.5,0.2-2.3,0.5
				c-0.2,0.1-1.3,0.8-3.3,2.2l-0.5,0.2c-0.1,0-0.3-0.1-0.4-0.2s-0.2-0.2-0.2-0.3c0.1-0.4,0.2-0.6,0.3-0.6l0.2-0.2
				c2.4-2.1,4.6-3.2,6.5-3.2c2.5,0,3.8,1.7,3.8,5v2.2c2.7-2.6,4.7-4.3,6-5.2C163.5,80.2,165.2,79.6,166.8,79.6 M166.8,78.6
				c-1.8,0-3.8,0.7-5.8,2.1c-1.1,0.7-2.5,1.9-4.4,3.7c-0.1-5.1-3-5.8-4.8-5.8c-2.2,0-4.5,1.1-7.2,3.4l0,0l0,0l-0.1,0.1
				c-0.4,0.3-0.5,0.7-0.6,1.1l-0.1,0.4l0.2,0.3c0.1,0.2,0.2,0.4,0.4,0.6c0.3,0.3,0.7,0.4,1.1,0.4h0.2l0.2-0.1l0.5-0.2l0.1,0l0.1-0.1
				c2.6-1.8,3.1-2.1,3.2-2.2c0.6-0.3,1.2-0.4,1.8-0.4c0.9,0,1.1,0.4,1.2,0.5c0.2,0.3,0.4,1.2,0.4,3.2v15.7c0,1.2,0.8,1.8,1.6,1.8
				c1.1,0,1.8-0.7,1.8-1.8V88.9c5.8-5.7,8.6-6.9,9.9-6.9c2.3,0,3.3,1,3.3,3.4c0,1.5-0.9,2.8-2.7,3.8l-0.2,0.1l-0.1,0.2l-0.3,0.5
				l-0.2,0.3v0.3c0,0.6,0.4,1,0.8,1.3l0.3,0.2h0.4h0.4h0.2h0.2l0.2-0.1c2.9-1.3,4.4-3.7,4.4-6.9c0-1.9-0.6-3.5-1.8-4.7
				C170.3,79.2,168.7,78.6,166.8,78.6L166.8,78.6z"/>
		</g>
		<g>
			<path class="st0" d="M187.2,103.1c-3.2,0-6.1-1.2-8.4-3.6s-3.5-5.2-3.5-8.5s1.2-6.1,3.4-8.5c2.3-2.4,5.1-3.6,8.5-3.6
				c3.4,0,6.3,1.2,8.5,3.4s3.4,5.2,3.4,8.6c0,3.4-1.2,6.2-3.5,8.5C193.2,101.9,190.4,103.1,187.2,103.1z M187.2,81.5
				c-2.7,0-5,0.9-6.8,2.8c-1.8,1.9-2.8,4.2-2.8,6.8c0,2.6,1,4.8,2.9,6.7s4.1,2.9,6.7,2.9c2.6,0,4.8-0.9,6.7-2.8s2.8-4.1,2.8-6.8
				c0-2.7-0.9-5-2.7-6.8C192.1,82.4,189.9,81.5,187.2,81.5z"/>
			<path class="st0" d="M187.2,79.6c3.3,0,6,1.1,8.2,3.3c2.2,2.2,3.3,4.9,3.3,8.2c0,3.2-1.1,6-3.4,8.2s-4.9,3.3-8,3.3
				s-5.8-1.1-8-3.4c-2.3-2.3-3.4-5-3.4-8.1c0-3.1,1.1-5.8,3.3-8.1C181.3,80.7,184,79.6,187.2,79.6 M187.2,101.2c2.7,0,5-1,7-2.9
				c2-1.9,3-4.3,3-7.2c0-2.9-1-5.3-2.9-7.2c-1.9-1.9-4.3-2.9-7.1-2.9c-2.9,0-5.3,1-7.2,3c-1.9,2-2.9,4.4-2.9,7.1c0,2.7,1,5.1,3,7.1
				C182.2,100.2,184.5,101.2,187.2,101.2 M187.2,78.6c-3.5,0-6.4,1.3-8.8,3.7c-2.4,2.4-3.6,5.4-3.6,8.8c0,3.4,1.2,6.4,3.7,8.8
				c2.4,2.5,5.4,3.7,8.8,3.7s6.3-1.2,8.7-3.6c2.4-2.4,3.7-5.4,3.7-8.9c0-3.6-1.2-6.6-3.6-8.9C193.7,79.8,190.7,78.6,187.2,78.6
				L187.2,78.6z M187.2,100.2c-2.4,0-4.5-0.9-6.4-2.7s-2.7-3.9-2.7-6.4c0-2.5,0.9-4.6,2.6-6.4c1.7-1.8,3.9-2.7,6.5-2.7
				c2.6,0,4.6,0.8,6.4,2.6s2.6,3.9,2.6,6.5s-0.9,4.7-2.7,6.5C191.8,99.3,189.7,100.2,187.2,100.2L187.2,100.2z"/>
		</g>
		<g>
			<path class="st0" d="M244.9,112c-0.7,0-1.2-0.4-1.5-1.1l-8.9-19.2l-9.3,19.3c-0.1,0.3-0.5,1.1-1.2,1.1c-0.4,0-1-0.1-1.4-1.1
				l-33.3-69.8v-0.4c0-0.8,0.4-1.2,1.2-1.2h0.1l0.1,0c0.5,0.3,0.7,0.5,0.8,0.7l32.5,68.2l9.2-19.3l-22.9-47.9l-0.1-0.4v-0.1
				c0-0.8,0.5-1.2,1.2-1.2h0.1l0.1,0c0.5,0.2,0.8,0.4,0.9,0.6l22,46.1l22.4-46.1c0.1-0.2,0.3-0.5,0.6-0.6c0.2,0,0.3-0.1,0.4-0.1
				c0.7,0,1.2,0.5,1.2,1.2v0.1l-0.1,0.4l-23.3,48l9.1,19.1l32.9-68.1c0.2-0.3,0.3-0.5,0.5-0.6c0.2-0.1,0.3-0.2,0.5-0.2
				c0.8,0,1.3,0.5,1.3,1.3v0.4l-33.8,69.8C246,111.2,245.6,112,244.9,112z"/>
			<path class="st0" d="M278.7,40c0.5,0,0.8,0.3,0.8,0.8V41l-33.8,69.7c-0.3,0.5-0.5,0.8-0.8,0.8c-0.5,0-0.8-0.3-1-0.8l-9.4-20.2
				l-9.8,20.2c-0.3,0.5-0.5,0.8-0.8,0.8c-0.4,0-0.7-0.3-0.9-0.8L189.7,41v-0.3c0-0.5,0.2-0.7,0.7-0.7c0.4,0.2,0.5,0.3,0.6,0.4
				l32.9,69.1l9.7-20.5l-23-48.1l-0.1-0.3c0-0.5,0.2-0.7,0.7-0.7c0.4,0.2,0.6,0.3,0.6,0.4l22.4,47.1l22.9-47.1
				c0.1-0.2,0.2-0.3,0.3-0.4s0.2,0,0.3,0c0.5,0,0.7,0.2,0.7,0.7l-0.1,0.3l-23.3,48.2l9.7,20.3l33.4-69c0.1-0.2,0.2-0.3,0.3-0.3
				C278.6,40,278.6,40,278.7,40 M278.7,39c-0.3,0-0.6,0.1-0.7,0.2c-0.3,0.2-0.5,0.4-0.7,0.7l0,0l0,0l-32.5,67.2l-8.6-18l23.1-47.7
				l0-0.1l0-0.1l0.1-0.3l0-0.1v-0.1c0-1-0.7-1.7-1.7-1.7c-0.2,0-0.4,0-0.6,0.1c-0.6,0.2-0.9,0.7-1,0.9l-22,45.2l-21.5-45.2
				c-0.2-0.4-0.6-0.7-1.1-0.9l-0.2-0.1h-0.2c-1,0-1.7,0.7-1.7,1.7v0.1l0,0.1l0.1,0.3l0,0.1l0.1,0.1L232.5,89l-8.6,18.1l-32-67.2
				c-0.2-0.4-0.6-0.7-1-0.9l-0.2-0.1h-0.2c-1,0-1.7,0.7-1.7,1.7V41v0.2l0.1,0.2l33.3,69.7c0.5,1.2,1.5,1.4,1.9,1.4
				c0.7,0,1.2-0.4,1.7-1.3l8.9-18.3l8.5,18.3c0.3,0.8,1.1,1.3,1.9,1.3c0.7,0,1.2-0.4,1.7-1.3l33.8-69.7l0.1-0.2V41v-0.2
				C280.4,39.7,279.7,39,278.7,39L278.7,39z"/>
		</g>
	</g>
	<g>
		<g>
			<polyline class="st1" points="254.5,17.5 10,17.5 10,132.5 310,132.5 310,63.2 			"/>
			<g>
				<g>
					<polygon class="st0" points="261.9,6.8 261.4,7.4 252.7,16 278.7,16 288,6.8 					"/>
					<path class="st0" d="M288,27.8l-9.3-8.9h-26c3.4,2.5,6.5,5.5,9.2,8.9H288z"/>
				</g>
			</g>
			<g>
				<path class="st0" d="M310,68.6l-10.8,6.6l-0.2-0.4l7-17.6c1.4-6.1,2.7-12.3,4-18.4c1.4,6.1,2.7,12.3,4,18.4l7,17.6l-0.2,0.4
					L310,68.6z"/>
			</g>
		</g>
	</g>
</g>
</svg>
